# xmcd
#
# Track frame offsets: 
#        150
#        26255
#        51390
#        73477
#        99172
#        119217
#        140575
#
# Disc length: 2208 seconds
#
# Revision: 0
# Processed by: cddbd v1.4PL0 Copyright (c) Steve Scherf et al.
# Submitted via: ExactAudioCopy v0.90b4
#
DISCID=69089e07
DTITLE=Miyahara Nami - REASON
DYEAR=2003
DGENRE=JPop
TTITLE0=konomama...
TTITLE1=Class of 1996
TTITLE2=NIJI
TTITLE3=above the sky
TTITLE4=falling
TTITLE5=Reason
TTITLE6=Voices
EXTD=
EXTT0=
EXTT1=
EXTT2=
EXTT3=
EXTT4=
EXTT5=
EXTT6=
PLAYORDER=
